<?xml version="1.0" encoding="utf-8"?>
<!-- Generator: Adobe Illustrator 24.0.0, SVG Export Plug-In . SVG Version: 6.00 Build 0)  -->
<svg version="1.1" id="Layer_1" xmlns="http://www.w3.org/2000/svg" xmlns:xlink="http://www.w3.org/1999/xlink" x="0px" y="0px"
	 viewBox="0 0 100 100" style="enable-background:new 0 0 100 100;" xml:space="preserve">
<style type="text/css">
	.st0{fill:url(#SVGID_1_);}
	.st1{fill:#F2F0F0;}
	.st2{fill:none;}
	.st3{opacity:0.5;fill:#4D4D4D;enable-background:new    ;}
	.st4{fill:url(#SVGID_2_);}
	.st5{fill:url(#SVGID_3_);}
	.st6{fill:url(#SVGID_4_);}
	.st7{fill:url(#SVGID_5_);}
	.st8{fill:url(#SVGID_6_);}
	.st9{fill:url(#SVGID_7_);}
	.st10{fill:url(#SVGID_8_);}
	.st11{fill:url(#SVGID_9_);}
	.st12{fill:url(#SVGID_10_);}
	.st13{fill:url(#SVGID_11_);}
	.st14{fill:url(#SVGID_12_);}
	.st15{fill:url(#SVGID_13_);}
	.st16{fill:url(#SVGID_14_);}
	.st17{fill:url(#SVGID_15_);}
	.st18{fill:url(#SVGID_16_);}
	.st19{fill:#FFFFFF;}
</style>
<linearGradient id="SVGID_1_" gradientUnits="userSpaceOnUse" x1="15.8494" y1="109.1506" x2="84.1506" y2="-9.1506">
	<stop  offset="0" style="stop-color:#68C3B6"/>
	<stop  offset="0.5" style="stop-color:#00969E"/>
	<stop  offset="1" style="stop-color:#115E8B"/>
</linearGradient>
<rect class="st0" width="100" height="100"/>
<path class="st1" d="M95,4h-0.6H94h-1h-0.4h-0.2H92h-1h-0.4h-0.2H90h-1h-0.4h-0.2H88h-1h-0.4h-0.2H86h-1h-0.4h-0.2H84h-1h-0.4h-0.2
	H82h-1h-0.4h-0.2H80h-1h-0.4h-0.2H78h-1h-0.4h-0.2H76h-1h-0.4h-0.2H74h-1h-0.4h-0.2H72h-1h-0.4h-0.2H70h-1h-0.4h-0.2H68h-1h-0.4
	h-0.2H66h-1h-0.4h-0.2H64h-1h-0.4h-0.2H62h-1h-0.4h-0.2H60h-1h-0.4h-0.2H58h-1h-0.4h-0.2H56h-1h-0.4h-0.2H54h-1h-0.4h-0.2H52h-1
	h-0.4h-0.2H50h-1h-0.4h-0.2H48h-1h-0.4h-0.2H46h-1h-0.4h-0.2H44h-1h-0.4h-0.2H42h-1h-0.4h-0.2H40h-1h-0.4h-0.2H38h-1h-0.4h-0.2H36
	h-1h-0.4h-0.2H34h-1h-0.4h-0.2H32h-1h-0.4h-0.2H30h-1h-0.4h-0.2H28h-1h-0.4h-0.2H26h-1h-0.4h-0.2H24h-1h-0.4h-0.2H22h-1h-0.4h-0.2
	H20h-1h-0.4h-0.2H18h-1h-0.4h-0.2H16h-1h-0.4h-0.2H14h-1h-0.4h-0.2H12h-1h-0.4h-0.2H10H9H8.7H8.4H8.1H7H6.7H6.4H6.1H5H4.7H4.4H4.1
	v0.1v1v0.4v0.2v0.4v1v0.4v0.2v0.4v1v0.4v0.2v0.4v1v0.4v0.2v0.4v1v0.4v0.2v0.4v1v0.4v0.2v0.4v1v0.4v0.2v0.4v1v0.4v0.2v0.4v1v0.4v0.2
	v0.4v1v0.4v0.2v0.4v1v0.4v0.2v0.4v1v0.4v0.2v0.4v1v0.4v0.2v0.4v1v0.4v0.2v0.4v1v0.4v0.2v0.4v1v0.4v0.2v0.4v1v0.4v0.2v0.4v1v0.4v0.2
	v0.4v1v0.4v0.2v0.4v1v0.4v0.2v0.4v1v0.4v0.2v0.4v1v0.4v0.2v0.4v1v0.4v0.2v0.4v1v0.4v0.2v0.4v1v0.4v0.2v0.4v1v0.4v0.2v0.4v1v0.4v0.2
	v0.4v1v0.4v0.2v0.4v1v0.4v0.2v0.4v1v0.4v0.2v0.4v1v0.4v0.2v0.4v1v0.4v0.2v0.4v1v0.4v0.2v0.4v1v0.4v0.2v0.4v1v0.4v0.2v0.4v1v0.4v0.2
	v0.4v1v0.4v0.2v0.4v1v0.4v0.2v0.4v1v0.4v0.2v0.4v1v0.4v0.2v0.4v1v0.4v0.2v0.4v1v0.4v0.2v0.4v1v0.4v0.2v0.4v1v0.4v0.2v0.4v1v0.4v0.2
	v1.4v0.6V96h0.3H5h1.4h0.2H7h1h0.4h0.2H9h1h0.4h0.2H11h1h0.4h0.2H13h1h0.4h0.2H15h1h0.4h0.2H17h1h0.4h0.2H19h1h0.4h0.2H21h1h0.4h0.2
	H23h1h0.4h0.2H25h1h0.4h0.2H27h1h0.4h0.2H29h1h0.4h0.2H31h1h0.4h0.2H33h1h0.4h0.2H35h1h0.4h0.2H37h1h0.4h0.2H39h1h0.4h0.2H41h1h0.4
	h0.2H43h1h0.4h0.2H45h1h0.4h0.2H47h1h0.4h0.2H49h1h0.4h0.2H51h1h0.4h0.2H53h1h0.4h0.2H55h1h0.4h0.2H57h1h0.4h0.2H59h1h0.4h0.2H61h1
	h0.4h0.2H63h1h0.4h0.2H65h1h0.4h0.2H67h1h0.4h0.2H69h1h0.4h0.2H71h1h0.4h0.2H73h1h0.4h0.2H75h1h0.4h0.2H77h1h0.4h0.2H79h1h0.4h0.2
	H81h1h0.4h0.2H83h1h0.4h0.2H85h1h0.4h0.2H87h1h0.4h0.2H89h1h0.4h0.2H91h1h0.4h0.2H93h1h0.4h0.2H95h1h0.1v-0.3v-0.2v-0.4v-1v-0.4
	v-0.2v-0.4v-1v-0.4v-0.2v-0.4v-1v-0.4v-0.2v-0.4v-1v-0.4v-0.2v-0.4v-1v-0.4v-0.2v-0.4v-1v-0.4v-0.2v-0.4v-1v-0.4v-0.2v-0.4v-1v-0.4
	v-0.2v-0.4v-1v-0.4v-0.2v-0.4v-1v-0.4v-0.2v-0.4v-1v-0.4v-0.2v-0.4v-1v-0.4v-0.2v-0.4v-1v-0.4v-0.2v-0.4v-1v-0.4v-0.2v-0.4v-1v-0.4
	v-0.2v-0.4v-1v-0.4v-0.2v-0.4v-1v-0.4v-0.2v-0.4v-1v-0.4v-0.2v-0.4v-1v-0.4v-0.2v-0.4v-1v-0.4v-0.2v-0.4v-1v-0.4v-0.2v-0.4v-1v-0.4
	v-0.2v-0.4v-1v-0.4v-0.2v-0.4v-1v-0.4v-0.2v-0.4v-1v-0.4v-0.2v-0.4v-1v-0.4v-0.2v-0.4v-1v-0.4v-0.2v-0.4v-1v-0.4v-0.2v-0.4v-1v-0.4
	v-0.2v-0.4v-1v-0.4v-0.2v-0.4v-1v-0.4v-0.2v-0.4v-1v-0.4v-0.2v-0.4v-1v-0.4v-0.2v-0.4v-1v-0.4v-0.2v-0.4v-1v-0.4v-0.2v-0.4v-1v-0.4
	v-0.2v-0.4v-1v-0.4v-0.2v-0.4v-1v-0.4v-0.2v-0.4v-1v-0.4v-0.2v-0.4v-1v-0.4v-0.2v-0.4v-1v-0.4v-0.2v-0.4v-1v-0.4v-0.2v-0.4v-1V9.7
	V9.5V9.1v-1V7.7V7.5V7.1v-1V5.7V5.1V4H95z M95.1,6.1v0.4v0.2v0.4v1v0.4v0.2v0.4v1v0.4v0.2v0.4v1v0.4v0.2v0.4v1v0.4v0.2v0.4v1v0.4
	v0.2v0.4v1v0.4v0.2v0.4v1v0.4v0.2v0.4v1v0.4v0.2v0.4v1v0.4v0.2v0.4v1v0.4v0.2v0.4v1v0.4v0.2v0.4v1v0.4v0.2v0.4v1v0.4v0.2v0.4v1v0.4
	v0.2v0.4v1v0.4v0.2v0.4v1v0.4v0.2v0.4v1v0.4v0.2v0.4v1v0.4v0.2v0.4v1v0.4v0.2v0.4v1v0.4v0.2v0.4v1v0.4v0.2v0.4v1v0.4v0.2v0.4v1v0.4
	v0.2v0.4v1v0.4v0.2v0.4v1v0.4v0.2v0.4v1v0.4v0.2v0.4v1v0.4v0.2v0.4v1v0.4v0.2v0.4v1v0.4v0.2v0.4v1v0.4v0.2v0.4v1v0.4v0.2v0.4v1v0.4
	v0.2v0.4v1v0.4v0.2v0.4v1v0.4v0.2v0.4v1v0.4v0.2v0.4v1v0.4v0.2v0.4v1v0.4v0.2v0.4v1v0.4v0.2v0.4v1v0.4v0.2v0.4v1v0.4v0.2v0.4v1v0.4
	v0.2v0.4v1v0.4v0.2v0.4v1v0.4v0.2v0.4v1v0.4v0.2V95H95h-1h-0.4h-0.2H93h-1h-0.4h-0.2H91h-1h-0.4h-0.2H89h-1h-0.4h-0.2H87h-1h-0.4
	h-0.2H85h-1h-0.4h-0.2H83h-1h-0.4h-0.2H81h-1h-0.4h-0.2H79h-1h-0.4h-0.2H77h-1h-0.4h-0.2H75h-1h-0.4h-0.2H73h-1h-0.4h-0.2H71h-1
	h-0.4h-0.2H69h-1h-0.4h-0.2H67h-1h-0.4h-0.2H65h-1h-0.4h-0.2H63h-1h-0.4h-0.2H61h-1h-0.4h-0.2H59h-1h-0.4h-0.2H57h-1h-0.4h-0.2H55
	h-1h-0.4h-0.2H53h-1h-0.4h-0.2H51h-1h-0.4h-0.2H49h-1h-0.4h-0.2H47h-1h-0.4h-0.2H45h-1h-0.4h-0.2H43h-1h-0.4h-0.2H41h-1h-0.4h-0.2
	H39h-1h-0.4h-0.2H37h-1h-0.4h-0.2H35h-1h-0.4h-0.2H33h-1h-0.4h-0.2H31h-1h-0.4h-0.2H29h-1h-0.4h-0.2H27h-1h-0.4h-0.2H25h-1h-0.4
	h-0.2H23h-1h-0.4h-0.2H21h-1h-0.4h-0.2H19h-1h-0.4h-0.2H17h-1h-0.4h-0.2H15h-1h-0.4h-0.2H13h-1h-0.4h-0.2H11h-1H9.7H9.4H9.1H8H7.7
	H7.4H7.1H6H5.7H5.4H5.1v-0.3v-0.2v-0.4v-1v-0.4v-0.2v-0.4v-1v-0.4v-0.2v-0.4v-1v-0.4v-0.2v-0.4v-1v-0.4v-0.2v-0.4v-1v-0.4v-0.2v-0.4
	v-1v-0.4v-0.2v-0.4v-1v-0.4v-0.2v-0.4v-1v-0.4v-0.2v-0.4v-1v-0.4v-0.2v-0.4v-1v-0.4v-0.2v-0.4v-1v-0.4v-0.2v-0.4v-1v-0.4v-0.2v-0.4
	v-1v-0.4v-0.2v-0.4v-1v-0.4v-0.2v-0.4v-1v-0.4v-0.2v-0.4v-1v-0.4v-0.2v-0.4v-1v-0.4v-0.2v-0.4v-1v-0.4v-0.2v-0.4v-1v-0.4v-0.2v-0.4
	v-1v-0.4v-0.2v-0.4v-1v-0.4v-0.2v-0.4v-1v-0.4v-0.2v-0.4v-1v-0.4v-0.2v-0.4v-1v-0.4v-0.2v-0.4v-1v-0.4v-0.2v-0.4v-1v-0.4v-0.2v-0.4
	v-1v-0.4v-0.2v-0.4v-1v-0.4v-0.2v-0.4v-1v-0.4v-0.2v-0.4v-1v-0.4v-0.2v-0.4v-1v-0.4v-0.2v-0.4v-1v-0.4v-0.2v-0.4v-1v-0.4v-0.2v-0.4
	v-1v-0.4v-0.2v-0.4v-1v-0.4v-0.2v-0.4v-1v-0.4v-0.2v-0.4v-1v-0.4v-0.2v-0.4v-1v-0.4v-0.2v-0.4v-1v-0.4v-0.2v-0.4v-1v-0.4v-0.2v-0.4
	v-1v-0.4v-0.2v-0.4v-1v-0.4v-0.2v-0.4v-1V8.7V8.5V8.1v-1V6.7V6.5V6.1v-1V5h0.3h0.2H6h1h0.4h0.2H8h1h0.4h0.2H10h1h0.4h0.2H12h1h0.4
	h0.2H14h1h0.4h0.2H16h1h0.4h0.2H18h1h0.4h0.2H20h1h0.4h0.2H22h1h0.4h0.2H24h1h0.4h0.2H26h1h0.4h0.2H28h1h0.4h0.2H30h1h0.4h0.2H32h1
	h0.4h0.2H34h1h0.4h0.2H36h1h0.4h0.2H38h1h0.4h0.2H40h1h0.4h0.2H42h1h0.4h0.2H44h1h0.4h0.2H46h1h0.4h0.2H48h1h0.4h0.2H50h1h0.4h0.2
	H52h1h0.4h0.2H54h1h0.4h0.2H56h1h0.4h0.2H58h1h0.4h0.2H60h1h0.4h0.2H62h1h0.4h0.2H64h1h0.4h0.2H66h1h0.4h0.2H68h1h0.4h0.2H70h1h0.4
	h0.2H72h1h0.4h0.2H74h1h0.4h0.2H76h1h0.4h0.2H78h1h0.4h0.2H80h1h0.4h0.2H82h1h0.4h0.2H84h1h0.4h0.2H86h1h0.4h0.2H88h1h0.4h0.2H90h1
	h0.4h0.2H92h1h0.4h0.2H94h1h0.1v0.1V6.1z"/>
<polygon class="st2" points="72.5,95 72.7,95 95,72.7 95,72.4 95,72.1 72.1,95 "/>
<polygon class="st2" points="24.5,95 24.7,95 95,24.7 95,24.4 95,24.1 24.1,95 "/>
<polygon class="st2" points="12.5,95 12.7,95 95,12.7 95,12.4 95,12.1 12.1,95 "/>
<polygon class="st2" points="5,94.4 5,94.7 94.7,5 94.5,5 94.1,5 5,94.1 "/>
<polygon class="st2" points="6.5,95 6.7,95 95,6.7 95,6.4 95,6.1 6.1,95 "/>
<polygon class="st2" points="94.5,95 94.7,95 95,94.7 95,94.4 95,94.1 94.1,95 "/>
<polygon class="st2" points="8.5,95 8.7,95 95,8.7 95,8.4 95,8.1 8.1,95 "/>
<polygon class="st2" points="20.5,95 20.7,95 95,20.7 95,20.4 95,20.1 20.1,95 "/>
<polygon class="st2" points="14.5,95 14.7,95 95,14.7 95,14.4 95,14.1 14.1,95 "/>
<polygon class="st2" points="22.5,95 22.7,95 95,22.7 95,22.4 95,22.1 22.1,95 "/>
<polygon class="st2" points="90.5,95 90.7,95 95,90.7 95,90.4 95,90.1 90.1,95 "/>
<polygon class="st2" points="16.5,95 16.7,95 95,16.7 95,16.4 95,16.1 16.1,95 "/>
<polygon class="st2" points="18.5,95 18.7,95 95,18.7 95,18.4 95,18.1 18.1,95 "/>
<polygon class="st2" points="92.5,95 92.7,95 95,92.7 95,92.4 95,92.1 92.1,95 "/>
<polygon class="st2" points="5,92.4 5,92.7 92.7,5 92.5,5 92.1,5 5,92.1 "/>
<polygon class="st2" points="5,70.4 5,70.7 70.7,5 70.5,5 70.1,5 5,70.1 "/>
<polygon class="st2" points="5,72.4 5,72.7 72.7,5 72.5,5 72.1,5 5,72.1 "/>
<polygon class="st2" points="5,76.4 5,76.7 76.7,5 76.5,5 76.1,5 5,76.1 "/>
<polygon class="st2" points="5,74.4 5,74.7 74.7,5 74.5,5 74.1,5 5,74.1 "/>
<polygon class="st2" points="5,68.4 5,68.7 68.7,5 68.5,5 68.1,5 5,68.1 "/>
<polygon class="st2" points="5,64.4 5,64.7 64.7,5 64.5,5 64.1,5 5,64.1 "/>
<polygon class="st2" points="5,66.4 5,66.7 66.7,5 66.5,5 66.1,5 5,66.1 "/>
<polygon class="st2" points="5,80.4 5,80.7 80.7,5 80.5,5 80.1,5 5,80.1 "/>
<polygon class="st2" points="5,84.4 5,84.7 84.7,5 84.5,5 84.1,5 5,84.1 "/>
<polygon class="st2" points="5,86.4 5,86.7 86.7,5 86.5,5 86.1,5 5,86.1 "/>
<polygon class="st2" points="5,88.4 5,88.7 88.7,5 88.5,5 88.1,5 5,88.1 "/>
<polygon class="st2" points="5,90.4 5,90.7 90.7,5 90.5,5 90.1,5 5,90.1 "/>
<polygon class="st2" points="5,78.4 5,78.7 78.7,5 78.5,5 78.1,5 5,78.1 "/>
<polygon class="st2" points="5,82.4 5,82.7 82.7,5 82.5,5 82.1,5 5,82.1 "/>
<polygon class="st2" points="84.5,95 84.7,95 95,84.7 95,84.4 95,84.1 84.1,95 "/>
<polygon class="st2" points="60.5,95 60.7,95 95,60.7 95,60.4 95,60.1 60.1,95 "/>
<polygon class="st2" points="80.5,95 80.7,95 95,80.7 95,80.4 95,80.1 80.1,95 "/>
<polygon class="st2" points="58.5,95 58.7,95 95,58.7 95,58.4 95,58.1 58.1,95 "/>
<polygon class="st2" points="56.5,95 56.7,95 95,56.7 95,56.4 95,56.1 56.1,95 "/>
<polygon class="st2" points="82.5,95 82.7,95 95,82.7 95,82.4 95,82.1 82.1,95 "/>
<polygon class="st2" points="54.5,95 54.7,95 95,54.7 95,54.4 95,54.1 54.1,95 "/>
<polygon class="st2" points="5,62.4 5,62.7 62.7,5 62.5,5 62.1,5 5,62.1 "/>
<polygon class="st2" points="62.5,95 62.7,95 95,62.7 95,62.4 95,62.1 62.1,95 "/>
<polygon class="st2" points="74.5,95 74.7,95 95,74.7 95,74.4 95,74.1 74.1,95 "/>
<polygon class="st2" points="70.5,95 70.7,95 95,70.7 95,70.4 95,70.1 70.1,95 "/>
<polygon class="st2" points="68.5,95 68.7,95 95,68.7 95,68.4 95,68.1 68.1,95 "/>
<polygon class="st2" points="66.5,95 66.7,95 95,66.7 95,66.4 95,66.1 66.1,95 "/>
<polygon class="st2" points="78.5,95 78.7,95 95,78.7 95,78.4 95,78.1 78.1,95 "/>
<polygon class="st2" points="64.5,95 64.7,95 95,64.7 95,64.4 95,64.1 64.1,95 "/>
<polygon class="st2" points="76.5,95 76.7,95 95,76.7 95,76.4 95,76.1 76.1,95 "/>
<polygon class="st2" points="26.5,95 26.7,95 95,26.7 95,26.4 95,26.1 26.1,95 "/>
<polygon class="st2" points="32.5,95 32.7,95 95,32.7 95,32.4 95,32.1 32.1,95 "/>
<polygon class="st2" points="30.5,95 30.7,95 95,30.7 95,30.4 95,30.1 30.1,95 "/>
<polygon class="st2" points="36.5,95 36.7,95 95,36.7 95,36.4 95,36.1 36.1,95 "/>
<polygon class="st2" points="34.5,95 34.7,95 95,34.7 95,34.4 95,34.1 34.1,95 "/>
<polygon class="st2" points="88.5,95 88.7,95 95,88.7 95,88.4 95,88.1 88.1,95 "/>
<polygon class="st2" points="86.5,95 86.7,95 95,86.7 95,86.4 95,86.1 86.1,95 "/>
<polygon class="st2" points="28.5,95 28.7,95 95,28.7 95,28.4 95,28.1 28.1,95 "/>
<polygon class="st2" points="38.5,95 38.7,95 95,38.7 95,38.4 95,38.1 38.1,95 "/>
<polygon class="st2" points="46.5,95 46.7,95 95,46.7 95,46.4 95,46.1 46.1,95 "/>
<polygon class="st2" points="52.5,95 52.7,95 95,52.7 95,52.4 95,52.1 52.1,95 "/>
<polygon class="st2" points="50.5,95 50.7,95 95,50.7 95,50.4 95,50.1 50.1,95 "/>
<polygon class="st2" points="48.5,95 48.7,95 95,48.7 95,48.4 95,48.1 48.1,95 "/>
<polygon class="st2" points="40.5,95 40.7,95 95,40.7 95,40.4 95,40.1 40.1,95 "/>
<polygon class="st2" points="44.5,95 44.7,95 95,44.7 95,44.4 95,44.1 44.1,95 "/>
<polygon class="st2" points="42.5,95 42.7,95 95,42.7 95,42.4 95,42.1 42.1,95 "/>
<polygon class="st2" points="10.5,95 10.7,95 95,10.7 95,10.4 95,10.1 10.1,95 "/>
<polygon class="st2" points="5,36.4 5,36.7 36.7,5 36.5,5 36.1,5 5,36.1 "/>
<polygon class="st2" points="5,34.4 5,34.7 34.7,5 34.5,5 34.1,5 5,34.1 "/>
<polygon class="st2" points="5,48.4 5,48.7 48.7,5 48.5,5 48.1,5 5,48.1 "/>
<polygon class="st2" points="5,38.4 5,38.7 38.7,5 38.5,5 38.1,5 5,38.1 "/>
<polygon class="st2" points="5,30.4 5,30.7 30.7,5 30.5,5 30.1,5 5,30.1 "/>
<polygon class="st2" points="5,44.4 5,44.7 44.7,5 44.5,5 44.1,5 5,44.1 "/>
<polygon class="st2" points="5,28.4 5,28.7 28.7,5 28.5,5 28.1,5 5,28.1 "/>
<polygon class="st2" points="5,40.4 5,40.7 40.7,5 40.5,5 40.1,5 5,40.1 "/>
<polygon class="st2" points="5,46.4 5,46.7 46.7,5 46.5,5 46.1,5 5,46.1 "/>
<polygon class="st2" points="5,42.4 5,42.7 42.7,5 42.5,5 42.1,5 5,42.1 "/>
<polygon class="st2" points="5,32.4 5,32.7 32.7,5 32.5,5 32.1,5 5,32.1 "/>
<polygon class="st2" points="5,16.4 5,16.7 16.7,5 16.5,5 16.1,5 5,16.1 "/>
<polygon class="st2" points="5,14.4 5,14.7 14.7,5 14.5,5 14.1,5 5,14.1 "/>
<polygon class="st2" points="5,26.4 5,26.7 26.7,5 26.5,5 26.1,5 5,26.1 "/>
<polygon class="st2" points="5,10.4 5,10.7 10.7,5 10.5,5 10.1,5 5,10.1 "/>
<polygon class="st2" points="5,8.4 5,8.7 8.7,5 8.5,5 8.1,5 5,8.1 "/>
<polygon class="st2" points="5,6.4 5,6.7 6.7,5 6.5,5 6.1,5 5,6.1 "/>
<polygon class="st2" points="5,22.4 5,22.7 22.7,5 22.5,5 22.1,5 5,22.1 "/>
<polygon class="st2" points="5,24.4 5,24.7 24.7,5 24.5,5 24.1,5 5,24.1 "/>
<polygon class="st2" points="5,18.4 5,18.7 18.7,5 18.5,5 18.1,5 5,18.1 "/>
<polygon class="st2" points="5,20.4 5,20.7 20.7,5 20.5,5 20.1,5 5,20.1 "/>
<polygon class="st2" points="5,12.4 5,12.7 12.7,5 12.5,5 12.1,5 5,12.1 "/>
<polygon class="st2" points="5,56.4 5,56.7 56.7,5 56.5,5 56.1,5 5,56.1 "/>
<polygon class="st2" points="5,58.4 5,58.7 58.7,5 58.5,5 58.1,5 5,58.1 "/>
<polygon class="st2" points="5,52.4 5,52.7 52.7,5 52.5,5 52.1,5 5,52.1 "/>
<polygon class="st2" points="5,60.4 5,60.7 60.7,5 60.5,5 60.1,5 5,60.1 "/>
<polygon class="st2" points="5,54.4 5,54.7 54.7,5 54.5,5 54.1,5 5,54.1 "/>
<polygon class="st2" points="5,50.4 5,50.7 50.7,5 50.5,5 50.1,5 5,50.1 "/>
<polygon class="st3" points="95,95 95,94.7 94.7,95 "/>
<polygon class="st3" points="93.1,95 94.1,95 95,94.1 95,93 95,92.7 92.7,95 "/>
<polygon class="st3" points="91.1,95 92.1,95 95,92.1 95,91 95,90.7 90.7,95 "/>
<polygon class="st3" points="89.1,95 90.1,95 95,90.1 95,89 95,88.7 88.7,95 "/>
<polygon class="st3" points="87.1,95 88.1,95 95,88.1 95,87 95,86.7 86.7,95 "/>
<polygon class="st3" points="85.1,95 86.1,95 95,86.1 95,85 95,84.7 84.7,95 "/>
<polygon class="st3" points="83.1,95 84.1,95 95,84.1 95,83 95,82.7 82.7,95 "/>
<polygon class="st3" points="81.1,95 82.1,95 95,82.1 95,81 95,80.7 80.7,95 "/>
<polygon class="st3" points="79.1,95 80.1,95 95,80.1 95,79 95,78.7 78.7,95 "/>
<polygon class="st3" points="77.1,95 78.1,95 95,78.1 95,77 95,76.7 76.7,95 "/>
<polygon class="st3" points="75.1,95 76.1,95 95,76.1 95,75 95,74.7 74.7,95 "/>
<polygon class="st3" points="73.1,95 74.1,95 95,74.1 95,73 95,72.7 72.7,95 "/>
<polygon class="st3" points="71.1,95 72.1,95 95,72.1 95,71 95,70.7 70.7,95 "/>
<polygon class="st3" points="69.1,95 70.1,95 95,70.1 95,69 95,68.7 68.7,95 "/>
<polygon class="st3" points="67.1,95 68.1,95 95,68.1 95,67 95,66.7 66.7,95 "/>
<polygon class="st3" points="65.1,95 66.1,95 95,66.1 95,65 95,64.7 64.7,95 "/>
<polygon class="st3" points="63.1,95 64.1,95 95,64.1 95,63 95,62.7 62.7,95 "/>
<polygon class="st3" points="61.1,95 62.1,95 95,62.1 95,61 95,60.7 60.7,95 "/>
<polygon class="st3" points="59.1,95 60.1,95 95,60.1 95,59 95,58.7 58.7,95 "/>
<polygon class="st3" points="57.1,95 58.1,95 95,58.1 95,57 95,56.7 56.7,95 "/>
<polygon class="st3" points="55.1,95 56.1,95 95,56.1 95,55 95,54.7 54.7,95 "/>
<polygon class="st3" points="53.1,95 54.1,95 95,54.1 95,53 95,52.7 52.7,95 "/>
<polygon class="st3" points="51.1,95 52.1,95 95,52.1 95,51 95,50.7 50.7,95 "/>
<polygon class="st3" points="49.1,95 50.1,95 95,50.1 95,49 95,48.7 48.7,95 "/>
<polygon class="st3" points="47.1,95 48.1,95 95,48.1 95,47 95,46.7 46.7,95 "/>
<polygon class="st3" points="45.1,95 46.1,95 95,46.1 95,45 95,44.7 44.7,95 "/>
<polygon class="st3" points="43.1,95 44.1,95 95,44.1 95,43 95,42.7 42.7,95 "/>
<polygon class="st3" points="41.1,95 42.1,95 95,42.1 95,41 95,40.7 40.7,95 "/>
<polygon class="st3" points="39.1,95 40.1,95 95,40.1 95,39 95,38.7 38.7,95 "/>
<polygon class="st3" points="37.1,95 38.1,95 95,38.1 95,37 95,36.7 36.7,95 "/>
<polygon class="st3" points="35.1,95 36.1,95 95,36.1 95,35 95,34.7 34.7,95 "/>
<polygon class="st3" points="33.1,95 34.1,95 95,34.1 95,33 95,32.7 32.7,95 "/>
<polygon class="st3" points="31.1,95 32.1,95 95,32.1 95,31 95,30.7 30.7,95 "/>
<polygon class="st3" points="29.1,95 30.1,95 95,30.1 95,29 95,28.7 28.7,95 "/>
<polygon class="st3" points="27.1,95 28.1,95 95,28.1 95,27 95,26.7 26.7,95 "/>
<polygon class="st3" points="25.1,95 26.1,95 95,26.1 95,25 95,24.7 24.7,95 "/>
<polygon class="st3" points="23.1,95 24.1,95 95,24.1 95,23 95,22.7 22.7,95 "/>
<polygon class="st3" points="21.1,95 22.1,95 95,22.1 95,21 95,20.7 20.7,95 "/>
<polygon class="st3" points="19.1,95 20.1,95 95,20.1 95,19 95,18.7 18.7,95 "/>
<polygon class="st3" points="17.1,95 18.1,95 95,18.1 95,17 95,16.7 16.7,95 "/>
<polygon class="st3" points="15.1,95 16.1,95 95,16.1 95,15 95,14.7 14.7,95 "/>
<polygon class="st3" points="13.1,95 14.1,95 95,14.1 95,13 95,12.7 12.7,95 "/>
<polygon class="st3" points="11.1,95 12.1,95 95,12.1 95,11 95,10.7 10.7,95 "/>
<polygon class="st3" points="9.1,95 10.1,95 95,10.1 95,9 95,8.7 8.7,95 "/>
<polygon class="st3" points="7.1,95 8.1,95 95,8.1 95,7 95,6.7 6.7,95 "/>
<polygon class="st3" points="5,95 5.1,95 6.1,95 95,6.1 95,5 95,5 94.7,5 5,94.7 "/>
<polygon class="st3" points="5,93 5,94.1 94.1,5 93.1,5 92.7,5 5,92.7 "/>
<polygon class="st3" points="5,91 5,92.1 92.1,5 91.1,5 90.7,5 5,90.7 "/>
<polygon class="st3" points="5,89 5,90.1 90.1,5 89.1,5 88.7,5 5,88.7 "/>
<polygon class="st3" points="5,87 5,88.1 88.1,5 87.1,5 86.7,5 5,86.7 "/>
<polygon class="st3" points="5,85 5,86.1 86.1,5 85.1,5 84.7,5 5,84.7 "/>
<polygon class="st3" points="5,83 5,84.1 84.1,5 83.1,5 82.7,5 5,82.7 "/>
<polygon class="st3" points="5,81 5,82.1 82.1,5 81.1,5 80.7,5 5,80.7 "/>
<polygon class="st3" points="5,79 5,80.1 80.1,5 79.1,5 78.7,5 5,78.7 "/>
<polygon class="st3" points="5,77 5,78.1 78.1,5 77.1,5 76.7,5 5,76.7 "/>
<polygon class="st3" points="5,75 5,76.1 76.1,5 75.1,5 74.7,5 5,74.7 "/>
<polygon class="st3" points="5,73 5,74.1 74.1,5 73.1,5 72.7,5 5,72.7 "/>
<polygon class="st3" points="5,71 5,72.1 72.1,5 71.1,5 70.7,5 5,70.7 "/>
<polygon class="st3" points="5,69 5,70.1 70.1,5 69.1,5 68.7,5 5,68.7 "/>
<polygon class="st3" points="5,67 5,68.1 68.1,5 67.1,5 66.7,5 5,66.7 "/>
<polygon class="st3" points="5,65 5,66.1 66.1,5 65.1,5 64.7,5 5,64.7 "/>
<polygon class="st3" points="5,63 5,64.1 64.1,5 63.1,5 62.7,5 5,62.7 "/>
<polygon class="st3" points="5,61 5,62.1 62.1,5 61.1,5 60.7,5 5,60.7 "/>
<polygon class="st3" points="5,59 5,60.1 60.1,5 59.1,5 58.7,5 5,58.7 "/>
<polygon class="st3" points="5,57 5,58.1 58.1,5 57.1,5 56.7,5 5,56.7 "/>
<polygon class="st3" points="5,55 5,56.1 56.1,5 55.1,5 54.7,5 5,54.7 "/>
<polygon class="st3" points="5,53 5,54.1 54.1,5 53.1,5 52.7,5 5,52.7 "/>
<polygon class="st3" points="5,51 5,52.1 52.1,5 51.1,5 50.7,5 5,50.7 "/>
<polygon class="st3" points="5,49 5,50.1 50.1,5 49.1,5 48.7,5 5,48.7 "/>
<polygon class="st3" points="5,47 5,48.1 48.1,5 47.1,5 46.7,5 5,46.7 "/>
<polygon class="st3" points="5,45 5,46.1 46.1,5 45.1,5 44.7,5 5,44.7 "/>
<polygon class="st3" points="5,43 5,44.1 44.1,5 43.1,5 42.7,5 5,42.7 "/>
<polygon class="st3" points="5,41 5,42.1 42.1,5 41.1,5 40.7,5 5,40.7 "/>
<polygon class="st3" points="5,39 5,40.1 40.1,5 39.1,5 38.7,5 5,38.7 "/>
<polygon class="st3" points="5,37 5,38.1 38.1,5 37.1,5 36.7,5 5,36.7 "/>
<polygon class="st3" points="5,35 5,36.1 36.1,5 35.1,5 34.7,5 5,34.7 "/>
<polygon class="st3" points="5,33 5,34.1 34.1,5 33.1,5 32.7,5 5,32.7 "/>
<polygon class="st3" points="5,31 5,32.1 32.1,5 31.1,5 30.7,5 5,30.7 "/>
<polygon class="st3" points="5,29 5,30.1 30.1,5 29.1,5 28.7,5 5,28.7 "/>
<polygon class="st3" points="5,27 5,28.1 28.1,5 27.1,5 26.7,5 5,26.7 "/>
<polygon class="st3" points="5,25 5,26.1 26.1,5 25.1,5 24.7,5 5,24.7 "/>
<polygon class="st3" points="5,23 5,24.1 24.1,5 23.1,5 22.7,5 5,22.7 "/>
<polygon class="st3" points="5,21 5,22.1 22.1,5 21.1,5 20.7,5 5,20.7 "/>
<polygon class="st3" points="5,19 5,20.1 20.1,5 19.1,5 18.7,5 5,18.7 "/>
<polygon class="st3" points="5,17 5,18.1 18.1,5 17.1,5 16.7,5 5,16.7 "/>
<polygon class="st3" points="5,15 5,16.1 16.1,5 15.1,5 14.7,5 5,14.7 "/>
<polygon class="st3" points="5,13 5,14.1 14.1,5 13.1,5 12.7,5 5,12.7 "/>
<polygon class="st3" points="5,11 5,12.1 12.1,5 11.1,5 10.7,5 5,10.7 "/>
<polygon class="st3" points="5,9 5,10.1 10.1,5 9.1,5 8.7,5 5,8.7 "/>
<polygon class="st3" points="5,7 5,8.1 8.1,5 7.1,5 6.7,5 5,6.7 "/>
<polygon class="st3" points="5,5 5,5 5,6.1 6.1,5 5.1,5 "/>
<g>
	
		<linearGradient id="SVGID_2_" gradientUnits="userSpaceOnUse" x1="17.45" y1="9.3255" x2="17.45" y2="45.9175" gradientTransform="matrix(4.489653e-11 -1 1 4.489653e-11 -1.6 100)">
		<stop  offset="0" style="stop-color:#EB5327"/>
		<stop  offset="0.3969" style="stop-color:#C22B28"/>
		<stop  offset="0.7175" style="stop-color:#B32C28"/>
		<stop  offset="1" style="stop-color:#6F2C27"/>
	</linearGradient>
	<rect x="7.3" y="72.5" class="st4" width="20.1" height="20.1"/>
</g>
<linearGradient id="SVGID_3_" gradientUnits="userSpaceOnUse" x1="39.45" y1="75.9212" x2="39.45" y2="107.8125" gradientTransform="matrix(4.489653e-11 -1 1 4.489653e-11 -1.6 100)">
	<stop  offset="0" style="stop-color:#42F2A5"/>
	<stop  offset="0.5" style="stop-color:#00CD39"/>
	<stop  offset="0.9944" style="stop-color:#02BB4D"/>
</linearGradient>
<rect x="72.8" y="50.5" class="st5" width="20.1" height="20.1"/>
<linearGradient id="SVGID_4_" gradientUnits="userSpaceOnUse" x1="60.45" y1="75.9021" x2="60.45" y2="105.9383" gradientTransform="matrix(4.489653e-11 -1 1 4.489653e-11 -1.6 100)">
	<stop  offset="0" style="stop-color:#FFF38E"/>
	<stop  offset="0.2103" style="stop-color:#FFE029"/>
	<stop  offset="0.4434" style="stop-color:#FEE03F"/>
	<stop  offset="0.8808" style="stop-color:#F3903F"/>
</linearGradient>
<rect x="73" y="29.5" class="st6" width="20.1" height="20.1"/>
<linearGradient id="SVGID_5_" gradientUnits="userSpaceOnUse" x1="82.75" y1="75.6829" x2="82.75" y2="112.4484" gradientTransform="matrix(4.489653e-11 -1 1 4.489653e-11 -1.6 100)">
	<stop  offset="0" style="stop-color:#42F2A5"/>
	<stop  offset="0.5" style="stop-color:#00CD39"/>
	<stop  offset="0.9944" style="stop-color:#02BB4D"/>
</linearGradient>
<rect x="73" y="7.2" class="st7" width="20.1" height="20.1"/>
<linearGradient id="SVGID_6_" gradientUnits="userSpaceOnUse" x1="17.45" y1="32.0871" x2="17.45" y2="65.8454" gradientTransform="matrix(4.489653e-11 -1 1 4.489653e-11 -1.6 100)">
	<stop  offset="0" style="stop-color:#EB5327"/>
	<stop  offset="0.3969" style="stop-color:#C22B28"/>
	<stop  offset="0.7175" style="stop-color:#B32C28"/>
	<stop  offset="1" style="stop-color:#6F2C27"/>
</linearGradient>
<rect x="29.2" y="72.5" class="st8" width="20.1" height="20.1"/>
<linearGradient id="SVGID_7_" gradientUnits="userSpaceOnUse" x1="39.15" y1="53.9871" x2="39.15" y2="87.7454" gradientTransform="matrix(4.489653e-11 -1 1 4.489653e-11 -1.6 100)">
	<stop  offset="0" style="stop-color:#42F2A5"/>
	<stop  offset="0.5" style="stop-color:#00CD39"/>
	<stop  offset="0.9944" style="stop-color:#02BB4D"/>
</linearGradient>
<rect x="51.1" y="50.8" class="st9" width="20.1" height="20.1"/>
<linearGradient id="SVGID_8_" gradientUnits="userSpaceOnUse" x1="60.95" y1="53.9871" x2="60.95" y2="87.7454" gradientTransform="matrix(4.489653e-11 -1 1 4.489653e-11 -1.6 100)">
	<stop  offset="0" style="stop-color:#42F2A5"/>
	<stop  offset="0.5" style="stop-color:#00CD39"/>
	<stop  offset="0.9944" style="stop-color:#02BB4D"/>
</linearGradient>
<rect x="51.1" y="29" class="st10" width="20.1" height="20.1"/>
<g>
	
		<linearGradient id="SVGID_9_" gradientUnits="userSpaceOnUse" x1="82.75" y1="53.3297" x2="82.75" y2="80.5122" gradientTransform="matrix(4.489653e-11 -1 1 4.489653e-11 -1.6 100)">
		<stop  offset="0" style="stop-color:#EB5327"/>
		<stop  offset="0.3969" style="stop-color:#C22B28"/>
		<stop  offset="0.7175" style="stop-color:#B32C28"/>
		<stop  offset="1" style="stop-color:#6F2C27"/>
	</linearGradient>
	<rect x="51.1" y="7.2" class="st11" width="20.1" height="20.1"/>
</g>
<linearGradient id="SVGID_10_" gradientUnits="userSpaceOnUse" x1="39.15" y1="32.0722" x2="39.15" y2="62.5174" gradientTransform="matrix(4.489653e-11 -1 1 4.489653e-11 -1.6 100)">
	<stop  offset="0" style="stop-color:#FFF38E"/>
	<stop  offset="0.2103" style="stop-color:#FFE029"/>
	<stop  offset="0.4434" style="stop-color:#FEE03F"/>
	<stop  offset="0.8808" style="stop-color:#F3903F"/>
</linearGradient>
<rect x="29.2" y="50.8" class="st12" width="20.1" height="20.1"/>
<linearGradient id="SVGID_11_" gradientUnits="userSpaceOnUse" x1="60.95" y1="31.1956" x2="60.95" y2="66.2163" gradientTransform="matrix(4.489653e-11 -1 1 4.489653e-11 -1.6 100)">
	<stop  offset="0" style="stop-color:#42F2A5"/>
	<stop  offset="0.5" style="stop-color:#00CD39"/>
	<stop  offset="0.9944" style="stop-color:#02BB4D"/>
</linearGradient>
<rect x="29.2" y="29" class="st13" width="20.1" height="20.1"/>
<linearGradient id="SVGID_12_" gradientUnits="userSpaceOnUse" x1="82.75" y1="31.1956" x2="82.75" y2="66.2163" gradientTransform="matrix(4.489653e-11 -1 1 4.489653e-11 -1.6 100)">
	<stop  offset="0" style="stop-color:#42F2A5"/>
	<stop  offset="0.5" style="stop-color:#00CD39"/>
	<stop  offset="0.9944" style="stop-color:#02BB4D"/>
</linearGradient>
<rect x="29.2" y="7.2" class="st14" width="20.1" height="20.1"/>
<linearGradient id="SVGID_13_" gradientUnits="userSpaceOnUse" x1="17.45" y1="53.3752" x2="17.45" y2="121.0406" gradientTransform="matrix(4.489653e-11 -1 1 4.489653e-11 -1.6 100)">
	<stop  offset="0" style="stop-color:#42F2A5"/>
	<stop  offset="0.5" style="stop-color:#00CD39"/>
	<stop  offset="0.9944" style="stop-color:#02BB4D"/>
</linearGradient>
<rect x="51" y="72.5" class="st15" width="42.2" height="20.1"/>
<linearGradient id="SVGID_14_" gradientUnits="userSpaceOnUse" x1="39.15" y1="10.1573" x2="39.15" y2="42.7804" gradientTransform="matrix(4.489653e-11 -1 1 4.489653e-11 -1.6 100)">
	<stop  offset="0" style="stop-color:#FFF38E"/>
	<stop  offset="0.2103" style="stop-color:#FFE029"/>
	<stop  offset="0.4434" style="stop-color:#FEE03F"/>
	<stop  offset="0.8808" style="stop-color:#F3903F"/>
</linearGradient>
<rect x="7.3" y="50.8" class="st16" width="20.1" height="20.1"/>
<g>
	
		<linearGradient id="SVGID_15_" gradientUnits="userSpaceOnUse" x1="60.95" y1="9.0615" x2="60.95" y2="43.2495" gradientTransform="matrix(4.489653e-11 -1 1 4.489653e-11 -1.6 100)">
		<stop  offset="0" style="stop-color:#EB5327"/>
		<stop  offset="0.3969" style="stop-color:#C22B28"/>
		<stop  offset="0.7175" style="stop-color:#B32C28"/>
		<stop  offset="1" style="stop-color:#6F2C27"/>
	</linearGradient>
	<rect x="7.3" y="29" class="st17" width="20.1" height="20.1"/>
</g>
<linearGradient id="SVGID_16_" gradientUnits="userSpaceOnUse" x1="82.75" y1="9.2807" x2="82.75" y2="41.4718" gradientTransform="matrix(4.489653e-11 -1 1 4.489653e-11 -1.6 100)">
	<stop  offset="0" style="stop-color:#FFF38E"/>
	<stop  offset="0.2103" style="stop-color:#FFE029"/>
	<stop  offset="0.4434" style="stop-color:#FEE03F"/>
	<stop  offset="0.8808" style="stop-color:#F3903F"/>
</linearGradient>
<rect x="7.3" y="7.2" class="st18" width="20.1" height="20.1"/>
<g>
	<path class="st19" d="M82.7,75.3c0,0,0.1,0.1,0.1,0.1c0.2,0.1,0.3,0.3,0.2,0.5c-0.1,0.2-0.2,0.3-0.4,0.3c-0.2,0-0.4-0.1-0.4-0.3
		c-0.1-0.2,0-0.4,0.2-0.5c0,0,0.1-0.1,0.1-0.1C82.5,75.3,82.6,75.3,82.7,75.3z M82.6,76.1c0.2,0,0.3-0.1,0.3-0.3
		c0-0.2-0.1-0.3-0.3-0.3c-0.2,0-0.3,0.1-0.3,0.3C82.3,75.9,82.4,76.1,82.6,76.1z"/>
	<path class="st19" d="M80.4,75.3c0.2,0.1,0.3,0.2,0.3,0.4c0,0.2-0.1,0.4-0.3,0.5c-0.2,0.1-0.4,0-0.5-0.2c-0.1-0.2,0-0.4,0.1-0.6
		c0,0,0.1-0.1,0.2-0.1C80.2,75.3,80.3,75.3,80.4,75.3z M80.3,75.4c-0.2,0-0.3,0.1-0.3,0.3c0,0.2,0.1,0.3,0.3,0.3
		c0.2,0,0.3-0.1,0.3-0.3C80.6,75.6,80.5,75.5,80.3,75.4z"/>
	<path class="st19" d="M66.1,86.1c-0.4,0-0.7,0-1.1,0c-0.1,0-0.2-0.1-0.2-0.1c-0.2-0.7-1.1-1-1.6-0.5c-0.4,0.3-0.3,0.9,0.2,1.1
		c0.3,0.1,0.6,0.2,0.9,0.2c0.3,0.1,0.7,0.2,1,0.3c1.1,0.5,1.3,1.8,0.3,2.6c-0.4,0.3-0.8,0.5-1.3,0.5c-0.5,0.1-1.1,0.1-1.6-0.1
		c-0.8-0.2-1.3-1-1.1-1.8c0.4,0,0.8,0,1.2,0c0,0.1,0,0.2,0,0.3c0.1,0.4,0.3,0.7,0.7,0.8c0.3,0.1,0.7,0,1-0.1
		c0.3-0.1,0.4-0.3,0.4-0.6c0-0.3-0.1-0.5-0.4-0.6c-0.2-0.1-0.5-0.1-0.7-0.2c-0.4-0.1-0.9-0.2-1.3-0.4c-1-0.5-1.1-1.8-0.3-2.5
		c0.7-0.6,2.1-0.8,2.9-0.4C65.8,84.9,66,85.4,66.1,86.1z"/>
	<path class="st19" d="M84.6,84.4c0.4,0,0.8,0,1.2,0c0,1.1,0,2.2,0,3.3c0,0,0,0,0.1,0c0.2-0.3,0.4-0.6,0.6-0.9
		c0.2-0.2,0.3-0.6,0.5-0.7c0.2-0.1,0.6,0,0.9,0c0.1,0,0.3,0,0.5,0c-0.5,0.6-0.9,1.2-1.4,1.8c0.5,0.8,1,1.5,1.5,2.3
		c-0.5,0-0.9,0-1.3,0c-0.1,0-0.1-0.1-0.2-0.2c-0.3-0.6-0.6-1.2-1-1.7c0-0.1-0.1-0.1-0.2-0.2c0,0.7,0,1.4,0,2.1c-0.4,0-0.8,0-1.2,0
		C84.6,88.3,84.6,86.4,84.6,84.4z"/>
	<path class="st19" d="M84.1,88.5c-0.9,0-1.8,0-2.7,0c0.1,0.3,0.1,0.5,0.2,0.7c0.1,0.2,0.3,0.3,0.5,0.3c0.3,0,0.5-0.1,0.7-0.3
		C82.9,89,83,89,83.2,89c0.3,0,0.5,0,0.8,0c0,0.5-0.3,1-0.9,1.2c-0.6,0.2-1.1,0.2-1.7,0c-0.5-0.2-0.9-0.6-1-1.1
		c-0.1-0.5-0.2-1,0-1.5c0.2-1.1,1.1-1.7,2.3-1.5c0.9,0.1,1.4,0.7,1.5,1.6C84.1,87.9,84.1,88.2,84.1,88.5z M82.9,87.7
		c0-0.3,0-0.6-0.3-0.7c-0.2-0.1-0.5-0.1-0.8,0c-0.3,0.2-0.3,0.4-0.3,0.7C82,87.7,82.4,87.7,82.9,87.7z"/>
	<path class="st19" d="M68.9,86.1c1.3,0,2.1,0.8,2.1,2.1c0,1.3-0.8,2.1-2.1,2.1c-1.3,0-2.1-0.9-2.1-2.2
		C66.9,86.9,67.7,86.1,68.9,86.1z M69.8,88.2c-0.1-0.3-0.1-0.6-0.2-0.8c-0.1-0.3-0.4-0.5-0.7-0.5c-0.3,0-0.6,0.1-0.7,0.5
		c-0.2,0.6-0.2,1.1,0,1.7c0.1,0.3,0.4,0.5,0.7,0.5c0.3,0,0.6-0.1,0.7-0.5C69.7,88.8,69.7,88.5,69.8,88.2z"/>
	<path class="st19" d="M72.9,87c0,1.1,0,2.1,0,3.2c-0.4,0-0.8,0-1.2,0c0-1.1,0-2.1,0-3.2c-0.2,0-0.4,0-0.6,0c0-0.3,0-0.5,0-0.8
		c0.2,0,0.4,0,0.6,0c0-0.2,0-0.3,0-0.5c0-0.2,0-0.3,0.1-0.5c0.1-0.5,0.4-0.8,0.9-0.8c0.3,0,0.6,0,0.9,0c0.1,0,0.2,0.1,0.2,0.1
		c0,0.2,0,0.4,0,0.6c-0.8,0-0.9,0.3-0.8,1.1c0.2,0,0.5,0,0.7,0c0,0.3,0,0.5,0,0.8C73.4,87,73.1,87,72.9,87z"/>
	<path class="st19" d="M79.1,85c0,0.4,0,0.8,0,1.2c0.3,0,0.6,0,0.9,0c0,0.3,0,0.5,0,0.8c-0.3,0-0.6,0-0.9,0c0,0.4,0,0.8,0,1.1
		c0,0.3,0,0.6,0,1c0,0.3,0.1,0.4,0.4,0.4c0.1,0,0.3,0,0.4,0c0,0.2,0,0.4,0,0.6c0,0-0.1,0.1-0.1,0.1c-0.4,0-0.7,0.1-1.1,0.1
		c-0.5,0-0.8-0.3-0.8-0.9c0-0.6,0-1.3,0-1.9c0-0.2,0-0.3,0-0.5c-0.3,0-0.5,0-0.8,0c0-0.3,0-0.5,0-0.8c0.2,0,0.5,0,0.8,0
		c0-0.2,0-0.4,0-0.6c0-0.2,0.1-0.2,0.2-0.3C78.5,85.2,78.8,85.1,79.1,85z"/>
	<path class="st19" d="M74.7,86.2c0-0.2,0-0.4,0-0.7c0-0.1,0-0.1,0.1-0.2c0.4-0.1,0.7-0.3,1.1-0.4c0,0.4,0,0.8,0,1.2
		c0.3,0,0.6,0,0.9,0c0,0.3,0,0.5,0,0.8c-0.3,0-0.6,0-0.9,0c0,0.2,0,0.4,0,0.6c0,0.5,0,0.9,0,1.4c0,0.4,0.1,0.5,0.6,0.5
		c0.1,0,0.2,0,0.3,0c0,0.2,0,0.4,0,0.6c0,0-0.1,0.1-0.1,0.1c-0.4,0-0.8,0.1-1.1,0.1c-0.5,0-0.7-0.3-0.8-0.8c0-0.6,0-1.1-0.1-1.7
		c0-0.3,0-0.5,0-0.8c-0.3,0-0.5,0-0.8,0c0-0.3,0-0.5,0-0.8C74.2,86.2,74.4,86.2,74.7,86.2z"/>
	<path class="st19" d="M89.9,86.2c-0.5,0-0.9-0.4-0.9-0.9c0-0.5,0.4-0.9,0.9-0.9c0.5,0,0.9,0.4,0.9,0.9
		C90.8,85.8,90.4,86.2,89.9,86.2z M89.9,84.5c-0.4,0-0.8,0.3-0.8,0.8c0,0.4,0.3,0.8,0.8,0.8c0.4,0,0.8-0.3,0.8-0.8
		C90.6,84.8,90.3,84.5,89.9,84.5z"/>
	<path class="st19" d="M80.8,78.4c0.2,0,0.4,0.2,0.4,0.4c0,0.2-0.2,0.4-0.4,0.4c-0.2,0-0.4-0.2-0.4-0.4
		C80.4,78.5,80.5,78.4,80.8,78.4z"/>
	<path class="st19" d="M81.3,76.8c0,0.2-0.2,0.4-0.4,0.4c-0.2,0-0.4-0.2-0.4-0.4c0-0.2,0.2-0.4,0.4-0.4
		C81.1,76.4,81.3,76.5,81.3,76.8z"/>
	<path class="st19" d="M81.8,75.8c0,0.2-0.2,0.4-0.4,0.4c-0.2,0-0.4-0.2-0.4-0.4c0-0.2,0.2-0.4,0.4-0.4
		C81.7,75.4,81.8,75.5,81.8,75.8z"/>
	<path class="st19" d="M82.5,80.7c0,0.2-0.2,0.4-0.4,0.4c-0.2,0-0.4-0.2-0.4-0.4c0-0.2,0.2-0.4,0.4-0.4
		C82.3,80.3,82.5,80.5,82.5,80.7z"/>
	<path class="st19" d="M81,83.7c0-0.2,0.2-0.4,0.4-0.4c0.2,0,0.4,0.2,0.4,0.4c0,0.2-0.2,0.4-0.4,0.4C81.1,84.1,81,83.9,81,83.7z"/>
	<path class="st19" d="M82.6,81.7c0,0.2-0.2,0.4-0.4,0.4c-0.2,0-0.4-0.2-0.4-0.4c0-0.2,0.2-0.4,0.4-0.4
		C82.5,81.3,82.6,81.5,82.6,81.7z"/>
	<path class="st19" d="M82,83.1c-0.2,0-0.4-0.2-0.4-0.4c0-0.2,0.2-0.4,0.4-0.4c0.2,0,0.4,0.2,0.4,0.4C82.4,83,82.2,83.1,82,83.1z"/>
	<path class="st19" d="M81,77.8c0,0.2-0.2,0.4-0.4,0.4c-0.2,0-0.4-0.2-0.4-0.4c0-0.2,0.2-0.4,0.4-0.4C80.9,77.4,81,77.5,81,77.8z"/>
	<path class="st19" d="M81.9,79.7c0,0.2-0.2,0.4-0.4,0.4c-0.2,0-0.4-0.2-0.4-0.4c0-0.2,0.2-0.4,0.4-0.4
		C81.7,79.3,81.9,79.5,81.9,79.7z"/>
	<path class="st19" d="M84.8,76.8c0,0.3-0.2,0.5-0.5,0.5c-0.2,0-0.4-0.2-0.5-0.4c0-0.2,0.2-0.5,0.4-0.5
		C84.6,76.3,84.8,76.5,84.8,76.8z M84,76.8c0,0.2,0.1,0.3,0.3,0.3c0.2,0,0.3-0.1,0.3-0.3c0-0.2-0.1-0.3-0.3-0.3
		C84.2,76.4,84,76.6,84,76.8z"/>
	<path class="st19" d="M78.6,76.3c0.3,0,0.4,0.2,0.5,0.4c0,0.3-0.2,0.5-0.4,0.5c-0.2,0-0.5-0.2-0.5-0.5
		C78.1,76.5,78.3,76.3,78.6,76.3z M78.9,76.8c0-0.2-0.1-0.3-0.3-0.3c-0.2,0-0.3,0.1-0.3,0.3c0,0.2,0.1,0.3,0.3,0.3
		C78.7,77.1,78.9,76.9,78.9,76.8z"/>
	<path class="st19" d="M82,76.3c0.3,0,0.5,0.2,0.4,0.5c0,0.2-0.2,0.4-0.5,0.4c-0.3,0-0.5-0.2-0.4-0.5C81.6,76.5,81.8,76.3,82,76.3z
		 M82,76.4c-0.2,0-0.3,0.1-0.3,0.3c0,0.2,0.1,0.3,0.3,0.3c0.2,0,0.3-0.1,0.3-0.3C82.4,76.6,82.2,76.4,82,76.4z"/>
	<path class="st19" d="M79.5,77.3c0.3,0,0.4,0.2,0.5,0.4c0,0.3-0.2,0.5-0.5,0.5c-0.2,0-0.5-0.2-0.5-0.5C79,77.5,79.2,77.3,79.5,77.3
		z M79.5,77.4c-0.2,0-0.3,0.1-0.3,0.3c0,0.2,0.2,0.3,0.3,0.3c0.2,0,0.3-0.1,0.3-0.3C79.8,77.6,79.7,77.4,79.5,77.4z"/>
	<path class="st19" d="M77.5,80.3c0.3,0,0.4,0.2,0.5,0.4c0,0.3-0.2,0.5-0.4,0.5c-0.2,0-0.5-0.2-0.5-0.4C77,80.5,77.2,80.3,77.5,80.3
		z M77.8,80.7c0-0.2-0.1-0.3-0.3-0.3c-0.2,0-0.3,0.1-0.3,0.3c0,0.2,0.2,0.3,0.3,0.3C77.7,81,77.8,80.9,77.8,80.7z"/>
	<path class="st19" d="M82.6,80.2c-0.2,0-0.4-0.2-0.4-0.5c0-0.3,0.2-0.5,0.5-0.5c0.3,0,0.5,0.2,0.4,0.5C83.1,80,82.9,80.2,82.6,80.2
		z M82.9,79.7c0-0.2-0.2-0.3-0.3-0.3c-0.2,0-0.3,0.2-0.3,0.3c0,0.2,0.1,0.3,0.3,0.3C82.8,80.1,82.9,79.9,82.9,79.7z"/>
	<path class="st19" d="M78.8,81.3c0.3,0,0.4,0.2,0.5,0.4c0,0.3-0.2,0.5-0.4,0.5c-0.2,0-0.5-0.2-0.5-0.5
		C78.3,81.5,78.5,81.3,78.8,81.3z M79.1,81.7c0-0.2-0.1-0.3-0.3-0.3c-0.2,0-0.3,0.2-0.3,0.3c0,0.2,0.2,0.3,0.3,0.3
		C79,82.1,79.1,81.9,79.1,81.7z"/>
	<path class="st19" d="M80.5,80.7c0-0.3,0.2-0.5,0.4-0.5c0.3,0,0.5,0.2,0.5,0.4c0,0.2-0.2,0.5-0.5,0.5C80.7,81.2,80.5,81,80.5,80.7z
		 M80.9,80.4c-0.2,0-0.3,0.1-0.3,0.3c0,0.2,0.1,0.3,0.3,0.3c0.2,0,0.3-0.2,0.3-0.3C81.2,80.5,81.1,80.4,80.9,80.4z"/>
	<path class="st19" d="M80.7,83.7c0,0.3-0.2,0.4-0.4,0.5c-0.3,0-0.5-0.2-0.5-0.5c0-0.2,0.2-0.4,0.4-0.5
		C80.5,83.2,80.7,83.4,80.7,83.7z M80.5,83.7c0-0.2-0.1-0.3-0.3-0.3c-0.2,0-0.3,0.2-0.3,0.3c0,0.2,0.2,0.3,0.3,0.3
		C80.4,84,80.5,83.9,80.5,83.7z"/>
	<path class="st19" d="M83.2,80.3c0.3,0,0.5,0.2,0.4,0.5c0,0.2-0.2,0.4-0.5,0.4c-0.2,0-0.4-0.2-0.4-0.5C82.8,80.5,83,80.3,83.2,80.3
		z M83.2,80.4c-0.2,0-0.3,0.1-0.3,0.3c0,0.2,0.1,0.3,0.3,0.3c0.2,0,0.3-0.1,0.3-0.3C83.5,80.5,83.4,80.4,83.2,80.4z"/>
	<path class="st19" d="M78.3,77.3c0.3,0,0.4,0.2,0.5,0.4c0,0.2-0.2,0.5-0.5,0.5c-0.2,0-0.5-0.2-0.4-0.5
		C77.9,77.5,78.1,77.3,78.3,77.3z M78.7,77.7c0-0.2-0.2-0.3-0.3-0.3c-0.2,0-0.3,0.1-0.3,0.3c0,0.2,0.2,0.3,0.3,0.3
		C78.5,78.1,78.7,77.9,78.7,77.7z"/>
	<path class="st19" d="M77.6,81.3c0.3,0,0.5,0.2,0.5,0.5c0,0.2-0.2,0.4-0.5,0.4c-0.2,0-0.5-0.2-0.5-0.5
		C77.2,81.5,77.4,81.3,77.6,81.3z M77.7,81.4c-0.2,0-0.3,0.1-0.3,0.3c0,0.2,0.1,0.3,0.3,0.4c0.2,0,0.3-0.1,0.3-0.3
		C78,81.6,77.8,81.4,77.7,81.4z"/>
	<path class="st19" d="M83.4,81.3c0.3,0,0.4,0.2,0.5,0.4c0,0.3-0.2,0.5-0.5,0.5c-0.3,0-0.5-0.2-0.5-0.5
		C82.9,81.5,83.1,81.3,83.4,81.3z M83.7,81.7c0-0.2-0.1-0.3-0.3-0.3c-0.2,0-0.3,0.1-0.3,0.3c0,0.2,0.2,0.3,0.3,0.3
		C83.6,82.1,83.7,81.9,83.7,81.7z"/>
	<path class="st19" d="M85,81.7c0,0.3-0.2,0.5-0.5,0.5c-0.2,0-0.4-0.2-0.5-0.4c0-0.2,0.2-0.5,0.4-0.5C84.8,81.3,85,81.5,85,81.7z
		 M84.5,82.1c0.2,0,0.3-0.1,0.3-0.3c0-0.2-0.1-0.3-0.3-0.3c-0.2,0-0.3,0.2-0.3,0.3C84.2,81.9,84.4,82.1,84.5,82.1z"/>
	<path class="st19" d="M83.6,76.8c0,0.2-0.2,0.4-0.5,0.5c-0.3,0-0.5-0.2-0.5-0.5c0-0.3,0.2-0.5,0.5-0.4
		C83.4,76.3,83.6,76.5,83.6,76.8z M83.2,77.1c0.2,0,0.3-0.1,0.3-0.3c0-0.2-0.1-0.3-0.3-0.3c-0.2,0-0.3,0.1-0.3,0.3
		C82.8,76.9,83,77.1,83.2,77.1z"/>
	<path class="st19" d="M84.2,79.8c0,0.3-0.2,0.4-0.5,0.4c-0.3,0-0.5-0.2-0.4-0.5c0-0.2,0.2-0.4,0.5-0.4C84,79.3,84.2,79.5,84.2,79.8
		z M83.8,80.1c0.2,0,0.3-0.1,0.3-0.3c0-0.2-0.1-0.3-0.3-0.3c-0.2,0-0.3,0.1-0.3,0.3C83.4,79.9,83.6,80.1,83.8,80.1z"/>
	<path class="st19" d="M78.5,79.7c0,0.3-0.2,0.5-0.5,0.5c-0.2,0-0.5-0.2-0.5-0.4c0-0.2,0.2-0.5,0.5-0.5
		C78.3,79.3,78.5,79.5,78.5,79.7z M78,79.4c-0.2,0-0.3,0.2-0.3,0.3c0,0.2,0.2,0.3,0.3,0.3c0.2,0,0.3-0.2,0.3-0.3
		C78.4,79.6,78.2,79.4,78,79.4z"/>
	<path class="st19" d="M84.5,77.8c0,0.2-0.2,0.5-0.5,0.5c-0.2,0-0.4-0.2-0.4-0.5c0-0.3,0.2-0.4,0.4-0.4
		C84.3,77.3,84.5,77.5,84.5,77.8z M84.1,78.1c0.2,0,0.3-0.2,0.3-0.3c0-0.2-0.2-0.3-0.3-0.3c-0.2,0-0.3,0.1-0.3,0.3
		C83.7,77.9,83.9,78.1,84.1,78.1z"/>
	<path class="st19" d="M84.4,80.3c0.3,0,0.4,0.2,0.5,0.4c0,0.3-0.2,0.5-0.4,0.5c-0.2,0-0.5-0.2-0.5-0.5
		C83.9,80.5,84.1,80.3,84.4,80.3z M84.7,80.7c0-0.2-0.1-0.3-0.3-0.3c-0.2,0-0.3,0.1-0.3,0.3c0,0.2,0.1,0.3,0.3,0.3
		C84.5,81.1,84.7,80.9,84.7,80.7z"/>
	<path class="st19" d="M80.8,79.8c0,0.3-0.2,0.5-0.5,0.4c-0.3,0-0.4-0.2-0.4-0.5c0-0.3,0.2-0.4,0.4-0.4
		C80.6,79.3,80.8,79.5,80.8,79.8z M80.7,79.8c0-0.2-0.1-0.3-0.3-0.3c-0.2,0-0.3,0.1-0.3,0.3c0,0.2,0.1,0.3,0.3,0.3
		C80.5,80.1,80.6,79.9,80.7,79.8z"/>
	<path class="st19" d="M80.2,76.8c0,0.3-0.2,0.5-0.5,0.5c-0.2,0-0.4-0.2-0.4-0.5c0-0.3,0.2-0.5,0.5-0.4C80,76.3,80.2,76.5,80.2,76.8
		z M80,76.8c0-0.2-0.1-0.3-0.3-0.3c-0.2,0-0.3,0.1-0.3,0.3c0,0.2,0.2,0.3,0.3,0.3C79.9,77.1,80,76.9,80,76.8z"/>
	<path class="st19" d="M86,80.7c0,0.3-0.2,0.5-0.5,0.5c-0.2,0-0.4-0.2-0.4-0.5c0-0.3,0.2-0.5,0.5-0.5C85.8,80.3,86,80.5,86,80.7z
		 M85.5,81.1c0.2,0,0.3-0.2,0.3-0.3c0-0.2-0.2-0.3-0.3-0.3c-0.2,0-0.3,0.1-0.3,0.3C85.2,80.9,85.3,81.1,85.5,81.1z"/>
	<path class="st19" d="M79.1,80.7c0,0.3-0.2,0.5-0.5,0.5c-0.2,0-0.4-0.2-0.4-0.5c0-0.3,0.2-0.5,0.5-0.5
		C78.9,80.3,79.1,80.5,79.1,80.7z M78.9,80.7c0-0.2-0.1-0.3-0.3-0.3c-0.2,0-0.3,0.1-0.3,0.3c0,0.2,0.1,0.3,0.3,0.3
		C78.8,81.1,78.9,80.9,78.9,80.7z"/>
	<path class="st19" d="M79.8,80.3c0.3,0,0.4,0.2,0.4,0.4c0,0.3-0.2,0.5-0.5,0.5c-0.2,0-0.4-0.2-0.4-0.5
		C79.3,80.5,79.5,80.3,79.8,80.3z M79.8,80.4c-0.2,0-0.3,0.1-0.3,0.3c0,0.2,0.1,0.3,0.3,0.3c0.2,0,0.3-0.1,0.3-0.3
		C80.1,80.6,80,80.4,79.8,80.4z"/>
	<path class="st19" d="M80.7,81.7c0-0.3,0.2-0.5,0.5-0.5c0.3,0,0.4,0.2,0.4,0.4c0,0.3-0.2,0.5-0.5,0.5C80.8,82.2,80.7,82,80.7,81.7z
		 M81.1,81.4c-0.2,0-0.3,0.1-0.3,0.3c0,0.2,0.1,0.3,0.3,0.3c0.2,0,0.3-0.2,0.3-0.3C81.4,81.6,81.3,81.4,81.1,81.4z"/>
	<path class="st19" d="M82.5,84.2c-0.2,0-0.4-0.2-0.4-0.5c0-0.3,0.2-0.5,0.5-0.5c0.2,0,0.4,0.2,0.4,0.5C83,84,82.8,84.2,82.5,84.2z
		 M82.5,84c0.2,0,0.3-0.1,0.3-0.3c0-0.2-0.2-0.3-0.3-0.3c-0.2,0-0.3,0.1-0.3,0.3C82.2,83.9,82.3,84,82.5,84z"/>
	<path class="st19" d="M78.5,78.3c0.3,0,0.5,0.2,0.4,0.5c0,0.2-0.2,0.4-0.5,0.4c-0.3,0-0.5-0.2-0.4-0.5C78,78.5,78.2,78.3,78.5,78.3
		z M78.8,78.7c0-0.2-0.2-0.3-0.3-0.3c-0.2,0-0.3,0.2-0.3,0.3c0,0.2,0.1,0.3,0.3,0.3C78.6,79.1,78.8,78.9,78.8,78.7z"/>
	<path class="st19" d="M83.1,78.3c0.3,0,0.5,0.2,0.5,0.5c0,0.2-0.2,0.4-0.5,0.4c-0.3,0-0.5-0.2-0.4-0.5
		C82.6,78.5,82.8,78.3,83.1,78.3z M83.4,78.8c0-0.2-0.2-0.3-0.3-0.3c-0.2,0-0.3,0.2-0.3,0.3c0,0.2,0.1,0.3,0.3,0.3
		C83.2,79.1,83.4,78.9,83.4,78.8z"/>
	<path class="st19" d="M82.5,77.8c0-0.3,0.2-0.4,0.4-0.5c0.3,0,0.5,0.2,0.5,0.4c0,0.2-0.2,0.5-0.4,0.5C82.7,78.2,82.5,78,82.5,77.8z
		 M83.2,77.8c0-0.2-0.2-0.3-0.3-0.3c-0.2,0-0.3,0.1-0.3,0.3c0,0.2,0.2,0.3,0.3,0.3C83.1,78.1,83.3,77.9,83.2,77.8z"/>
	<path class="st19" d="M82.7,82.7c0-0.3,0.2-0.5,0.5-0.5c0.2,0,0.4,0.2,0.4,0.5c0,0.2-0.2,0.5-0.4,0.5C82.9,83.2,82.7,83,82.7,82.7z
		 M83.1,83c0.2,0,0.3-0.1,0.3-0.3c0-0.2-0.1-0.3-0.3-0.4c-0.2,0-0.3,0.1-0.3,0.3C82.8,82.9,82.9,83,83.1,83z"/>
	<path class="st19" d="M81.5,78.8c0-0.3,0.2-0.5,0.4-0.5c0.3,0,0.4,0.2,0.4,0.4c0,0.3-0.2,0.5-0.5,0.5C81.7,79.2,81.5,79,81.5,78.8z
		 M81.9,78.4c-0.2,0-0.3,0.1-0.3,0.3c0,0.2,0.1,0.3,0.3,0.3c0.2,0,0.3-0.2,0.3-0.3C82.2,78.6,82.1,78.4,81.9,78.4z"/>
	<path class="st19" d="M84.7,78.8c0,0.3-0.2,0.4-0.5,0.4c-0.2,0-0.4-0.2-0.4-0.5c0-0.3,0.2-0.4,0.5-0.4
		C84.5,78.3,84.7,78.5,84.7,78.8z M83.9,78.7c0,0.2,0.1,0.3,0.3,0.3c0.2,0,0.3-0.1,0.3-0.3c0-0.2-0.1-0.3-0.3-0.3
		C84.1,78.4,83.9,78.6,83.9,78.7z"/>
	<path class="st19" d="M79.9,81.3c0.3,0,0.4,0.2,0.4,0.4c0,0.3-0.2,0.5-0.4,0.5c-0.3,0-0.5-0.2-0.5-0.5
		C79.5,81.5,79.7,81.3,79.9,81.3z M79.9,82.1c0.2,0,0.3-0.1,0.3-0.3c0-0.2-0.1-0.3-0.3-0.3c-0.2,0-0.3,0.1-0.3,0.3
		C79.6,81.9,79.8,82.1,79.9,82.1z"/>
	<path class="st19" d="M79.6,79.7c0,0.2-0.2,0.5-0.4,0.5c-0.3,0-0.5-0.2-0.5-0.5c0-0.3,0.2-0.5,0.5-0.5
		C79.4,79.3,79.6,79.5,79.6,79.7z M79.2,80.1c0.2,0,0.3-0.1,0.3-0.3c0-0.2-0.1-0.3-0.3-0.3c-0.2,0-0.3,0.2-0.3,0.3
		C78.8,79.9,79,80.1,79.2,80.1z"/>
	<path class="st19" d="M84.9,80.2c-0.2,0-0.4-0.2-0.5-0.4c0-0.3,0.2-0.5,0.5-0.5c0.3,0,0.5,0.2,0.5,0.5C85.4,80,85.2,80.2,84.9,80.2
		z M84.9,79.4c-0.2,0-0.3,0.1-0.3,0.3c0,0.2,0.2,0.3,0.3,0.3c0.2,0,0.3-0.1,0.3-0.3C85.2,79.6,85.1,79.4,84.9,79.4z"/>
	<path class="st19" d="M80.1,82.7c0,0.3-0.2,0.5-0.5,0.5c-0.2,0-0.4-0.2-0.5-0.4c0-0.3,0.2-0.5,0.5-0.5
		C79.9,82.3,80.1,82.5,80.1,82.7z M80,82.7c0-0.2-0.1-0.3-0.3-0.3c-0.2,0-0.3,0.2-0.3,0.3c0,0.2,0.2,0.3,0.3,0.3
		C79.8,83,80,82.9,80,82.7z"/>
	<path class="st19" d="M76.9,78.7c0-0.3,0.2-0.4,0.4-0.4c0.3,0,0.5,0.2,0.5,0.5c0,0.3-0.2,0.5-0.5,0.4C77.1,79.2,76.9,79,76.9,78.7z
		 M77.6,78.8c0-0.2-0.2-0.3-0.3-0.3c-0.2,0-0.3,0.2-0.3,0.3c0,0.2,0.2,0.3,0.3,0.3C77.5,79.1,77.6,78.9,77.6,78.8z"/>
	<path class="st19" d="M85.8,78.8c0,0.2-0.2,0.4-0.4,0.5c-0.3,0-0.5-0.2-0.5-0.5c0-0.3,0.2-0.5,0.5-0.5
		C85.6,78.3,85.8,78.5,85.8,78.8z M85.7,78.8c0-0.2-0.1-0.3-0.3-0.3c-0.2,0-0.3,0.2-0.3,0.3c0,0.2,0.2,0.3,0.3,0.3
		C85.5,79.1,85.7,78.9,85.7,78.8z"/>
	<path class="st19" d="M82.2,77.8c0,0.3-0.2,0.5-0.4,0.5c-0.2,0-0.5-0.2-0.5-0.5c0-0.3,0.2-0.5,0.5-0.4C82,77.3,82.2,77.5,82.2,77.8
		z M81.8,77.4c-0.2,0-0.3,0.1-0.3,0.3c0,0.2,0.2,0.3,0.3,0.3c0.2,0,0.3-0.1,0.3-0.3C82.1,77.6,82,77.4,81.8,77.4z"/>
	<path class="st19" d="M79.6,78.3c0.3,0,0.5,0.2,0.4,0.5c0,0.2-0.2,0.4-0.5,0.4c-0.2,0-0.4-0.2-0.4-0.5
		C79.2,78.5,79.4,78.3,79.6,78.3z M79.9,78.8c0-0.2-0.2-0.3-0.3-0.3c-0.2,0-0.3,0.2-0.3,0.3c0,0.2,0.2,0.3,0.3,0.3
		C79.8,79.1,79.9,78.9,79.9,78.8z"/>
	<path class="st19" d="M84.7,82.7c0,0.3-0.2,0.5-0.5,0.5c-0.2,0-0.4-0.2-0.4-0.5c0-0.3,0.2-0.5,0.5-0.5
		C84.5,82.3,84.7,82.5,84.7,82.7z M84.3,82.4c-0.2,0-0.3,0.2-0.3,0.3c0,0.2,0.2,0.3,0.3,0.3c0.2,0,0.3-0.2,0.3-0.4
		C84.6,82.5,84.4,82.4,84.3,82.4z"/>
	<path class="st19" d="M81.3,82.7c0,0.3-0.2,0.4-0.4,0.4c-0.3,0-0.5-0.2-0.4-0.5c0-0.3,0.2-0.4,0.4-0.4
		C81.1,82.3,81.3,82.5,81.3,82.7z M81.2,82.7c0-0.2-0.2-0.3-0.3-0.3c-0.2,0-0.3,0.2-0.3,0.3c0,0.2,0.2,0.3,0.3,0.3
		C81,83.1,81.2,82.9,81.2,82.7z"/>
	<path class="st19" d="M79,82.7c0,0.2-0.2,0.5-0.4,0.5c-0.3,0-0.5-0.2-0.5-0.5c0-0.2,0.2-0.4,0.4-0.5C78.8,82.3,79,82.5,79,82.7z
		 M78.9,82.7c0-0.2-0.2-0.3-0.3-0.3c-0.2,0-0.3,0.2-0.3,0.3c0,0.2,0.2,0.3,0.3,0.3C78.7,83,78.8,82.9,78.9,82.7z"/>
	<path class="st19" d="M90.1,85.3c0.1,0.1,0.1,0.2,0.2,0.3c0,0,0,0,0,0.1c-0.1,0-0.2-0.1-0.2-0.1c-0.1-0.1-0.1-0.2-0.2-0.3
		c0,0.2-0.1,0.3-0.1,0.4c0,0-0.1,0-0.1,0c0-0.3,0-0.5,0-0.8c0.3-0.1,0.6,0,0.6,0.1C90.2,85.1,90.2,85.2,90.1,85.3
		C90.1,85.3,90.1,85.3,90.1,85.3z M89.8,84.9c-0.1,0.2,0,0.3,0.1,0.2c0.1,0,0.1-0.1,0.2-0.1C90,85,89.9,85,89.8,84.9z"/>
</g>
</svg>
